<svg id="Layer_1" data-name="Layer 1" xmlns="http://www.w3.org/2000/svg" viewBox="0 0 107 15.4"><defs><style>.cls-1{fill:#fff;}</style></defs><title>logo_white</title><path class="cls-1" d="M528.8,67.11c0,3.91,1.17,5.73,3.48,5.73,2.06,0,2.91-1.26,3.48-3.4h1.52l-.14,4.78h-1.36c-.14-.45-.24-.69-.51-.69-.43,0-1.4.93-3.5.93-3.81,0-6.6-2.17-6.6-7.33,0-4.8,3.14-7.29,6.7-7.29,1.94,0,2.79.81,3.24.81.28,0,.42-.26.57-.63H537l.14,4.7h-1.52c-.51-2.08-1.36-3.3-3.32-3.3S528.8,62.78,528.8,67.11Z" transform="translate(-525.18 -59.05)"/><path class="cls-1" d="M543.67,59.05v5.36l-.08,1.28h.12a3.25,3.25,0,0,1,3.16-1.82c2,0,3.14.93,3.14,3.3v5.51l1.28.14v1.42h-5.36V72.82l1-.14v-5.1c0-1.09-.14-1.82-1.28-1.82s-1.92.65-1.92,2.35v4.57l1,.14v1.42h-5.49V72.82l1.32-.14V60.73l-1.32-.14v-1.4Z" transform="translate(-525.18 -59.05)"/><path class="cls-1" d="M559.46,72.82v1.42H552.7V72.82l1.32-.14v-7l-1.32-.14V64.17l4.13-.14.14,1.74h.08a3.08,3.08,0,0,1,2.91-1.9,2.21,2.21,0,0,1,2.41,2.43,1.92,1.92,0,0,1-2,2.13c-1.28,0-1.72-.79-1.7-1.84l.81-.24a1.39,1.39,0,0,0,0-.26c0-.34-.24-.49-.59-.49-1.13,0-1.82,1.38-1.82,2.87v4.21Z" transform="translate(-525.18 -59.05)"/><path class="cls-1" d="M568.69,63.87c3.62,0,5.1,2.19,5.1,5.26s-1.74,5.32-5.22,5.32-5.14-2.17-5.14-5.24S565.25,63.87,568.69,63.87Zm-.1,1.23c-1.52,0-1.84,1.46-1.84,4,0,2.71.32,4.13,1.9,4.13s1.82-1.44,1.82-4S570.19,65.1,568.59,65.1Z" transform="translate(-525.18 -59.05)"/><path class="cls-1" d="M578.93,64l.14,1.92h.12a3.43,3.43,0,0,1,3.42-2.06c2,0,3.14.93,3.14,3.3v5.51l1.28.14v1.42h-5.36V72.82l1-.14v-5.1c0-1.09-.14-1.82-1.26-1.82s-1.94.65-1.94,2.29v4.64l1,.14v1.42H575V72.82l1.26-.14v-7L575,65.55v-1.4Z" transform="translate(-525.18 -59.05)"/><path class="cls-1" d="M593,64.05v8.64l1.54.14v1.4h-6.19v-1.4l1.52-.14v-7l-1.48-.14V64.21Zm-1.82-4.84A1.63,1.63,0,0,1,593.07,61a1.9,1.9,0,0,1-3.79,0A1.69,1.69,0,0,1,591.21,59.21Z" transform="translate(-525.18 -59.05)"/><path class="cls-1" d="M598.64,69.09c0,2.35.49,3.7,2.23,3.7,1.28,0,1.78-1,2.17-1.92l1.46.51a4.06,4.06,0,0,1-4.19,3.08c-3.24,0-5-1.92-5-5,0-3.42,2-5.55,5.32-5.55,2.63,0,3.79,1.44,3.79,3a1.66,1.66,0,0,1-1.7,1.82,1.43,1.43,0,0,1-1.5-1.52,2.7,2.7,0,0,1,.14-.87h.77a1.38,1.38,0,0,0,.06-.38c0-.61-.49-.83-1.21-.83C599.27,65.12,598.64,66.78,598.64,69.09Z" transform="translate(-525.18 -59.05)"/><path class="cls-1" d="M610.24,59.05V72.69l1.4.14v1.4h-5.89v-1.4l1.36-.14v-12l-1.36-.14V59.21Z" transform="translate(-525.18 -59.05)"/><path class="cls-1" d="M617.66,63.87c2.59,0,4.37,1.4,4.37,4.47,0,.26,0,.81,0,1.09h-6.07c0,1.88.45,3.34,2.27,3.34,1.26,0,1.84-.73,2.33-1.82l1.44.51a4.16,4.16,0,0,1-4.27,3c-3.28,0-5-2.06-5-5.12C612.64,65.85,614.79,63.87,617.66,63.87Zm1.19,4.23v-.36c0-1.84-.26-2.65-1.32-2.65s-1.56,1.34-1.6,3Z" transform="translate(-525.18 -59.05)"/><path class="cls-1" d="M624,71h1.26a2.83,2.83,0,0,0,3,2.11c1.13,0,1.68-.36,1.68-1.11,0-.91-.91-1.07-2-1.28-1.7-.3-3.79-.65-3.79-3.34a3.47,3.47,0,0,1,3.77-3.46,3.8,3.8,0,0,1,1.9.49.85.85,0,0,0,.43.12c.26,0,.3-.14.4-.49h1.07v3.14h-1.23a2.53,2.53,0,0,0-2.53-1.92c-.79,0-1.54.3-1.54,1.05s.89,1,2,1.21c1.7.32,3.89.73,3.89,3.44,0,2.25-1.48,3.54-3.72,3.54a5,5,0,0,1-2.49-.63,1,1,0,0,0-.38-.1c-.22,0-.3.14-.43.61H624Z" transform="translate(-525.18 -59.05)"/></svg>