<svg id="Layer_1" data-name="Layer 1" xmlns="http://www.w3.org/2000/svg" viewBox="0 0 13 520"><defs><style>.cls-1{fill:#fff;}.cls-2{fill:none;stroke:#fff;stroke-miterlimit:10;}</style></defs><title>timeline_white</title><circle class="cls-1" cx="6.5" cy="6.5" r="6.5"/><circle class="cls-1" cx="6.5" cy="45.5" r="6.5"/><circle class="cls-1" cx="6.5" cy="84.5" r="6.5"/><circle class="cls-1" cx="6.5" cy="123.5" r="6.5"/><circle class="cls-1" cx="6.5" cy="162.5" r="6.5"/><circle class="cls-1" cx="6.5" cy="201.5" r="6.5"/><circle class="cls-1" cx="6.5" cy="240.5" r="6.5"/><circle class="cls-1" cx="6.5" cy="279.5" r="6.5"/><circle class="cls-1" cx="6.5" cy="318.5" r="6.5"/><circle class="cls-1" cx="6.5" cy="357.5" r="6.5"/><circle class="cls-1" cx="6.5" cy="396.5" r="6.5"/><circle class="cls-1" cx="6.5" cy="435.5" r="6.5"/><circle class="cls-1" cx="6.5" cy="474.5" r="6.5"/><circle class="cls-1" cx="6.5" cy="513.5" r="6.5"/><line class="cls-2" x1="6.5" y1="6.5" x2="6.5" y2="13"/><line class="cls-2" x1="6.5" y1="16.25" x2="6.5" y2="22.75"/><line class="cls-2" x1="6.5" y1="26" x2="6.5" y2="32.5"/><line class="cls-2" x1="6.5" y1="35.75" x2="6.5" y2="42.25"/><line class="cls-2" x1="6.5" y1="45.5" x2="6.5" y2="52"/><line class="cls-2" x1="6.5" y1="55.25" x2="6.5" y2="61.75"/><line class="cls-2" x1="6.5" y1="65" x2="6.5" y2="71.5"/><line class="cls-2" x1="6.5" y1="74.75" x2="6.5" y2="81.25"/><line class="cls-2" x1="6.5" y1="84.5" x2="6.5" y2="91"/><line class="cls-2" x1="6.5" y1="94.25" x2="6.5" y2="100.75"/><line class="cls-2" x1="6.5" y1="104" x2="6.5" y2="110.5"/><line class="cls-2" x1="6.5" y1="113.75" x2="6.5" y2="120.25"/><line class="cls-2" x1="6.5" y1="123.5" x2="6.5" y2="130"/><line class="cls-2" x1="6.5" y1="133.25" x2="6.5" y2="139.75"/><line class="cls-2" x1="6.5" y1="143" x2="6.5" y2="149.5"/><line class="cls-2" x1="6.5" y1="152.75" x2="6.5" y2="159.25"/><line class="cls-2" x1="6.5" y1="162.5" x2="6.5" y2="169"/><line class="cls-2" x1="6.5" y1="172.25" x2="6.5" y2="178.75"/><line class="cls-2" x1="6.5" y1="182" x2="6.5" y2="188.5"/><line class="cls-2" x1="6.5" y1="191.75" x2="6.5" y2="198.25"/><line class="cls-2" x1="6.5" y1="201.5" x2="6.5" y2="208"/><line class="cls-2" x1="6.5" y1="211.25" x2="6.5" y2="217.75"/><line class="cls-2" x1="6.5" y1="221" x2="6.5" y2="227.5"/><line class="cls-2" x1="6.5" y1="230.75" x2="6.5" y2="237.25"/><line class="cls-2" x1="6.5" y1="240.5" x2="6.5" y2="247"/><line class="cls-2" x1="6.5" y1="250.25" x2="6.5" y2="256.75"/><line class="cls-2" x1="6.5" y1="260" x2="6.5" y2="266.5"/><line class="cls-2" x1="6.5" y1="269.75" x2="6.5" y2="276.25"/><line class="cls-2" x1="6.5" y1="279.5" x2="6.5" y2="286"/><line class="cls-2" x1="6.5" y1="289.25" x2="6.5" y2="295.75"/><line class="cls-2" x1="6.5" y1="299" x2="6.5" y2="305.5"/><line class="cls-2" x1="6.5" y1="308.75" x2="6.5" y2="315.25"/><line class="cls-2" x1="6.5" y1="318.5" x2="6.5" y2="325"/><line class="cls-2" x1="6.5" y1="328.25" x2="6.5" y2="334.75"/><line class="cls-2" x1="6.5" y1="338" x2="6.5" y2="344.5"/><line class="cls-2" x1="6.5" y1="347.75" x2="6.5" y2="354.25"/><line class="cls-2" x1="6.5" y1="357.5" x2="6.5" y2="364"/><line class="cls-2" x1="6.5" y1="367.25" x2="6.5" y2="373.75"/><line class="cls-2" x1="6.5" y1="377" x2="6.5" y2="383.5"/><line class="cls-2" x1="6.5" y1="386.75" x2="6.5" y2="393.25"/><line class="cls-2" x1="6.5" y1="396.5" x2="6.5" y2="403"/><line class="cls-2" x1="6.5" y1="406.25" x2="6.5" y2="412.75"/><line class="cls-2" x1="6.5" y1="416" x2="6.5" y2="422.5"/><line class="cls-2" x1="6.5" y1="425.75" x2="6.5" y2="432.25"/><line class="cls-2" x1="6.5" y1="435.5" x2="6.5" y2="442"/><line class="cls-2" x1="6.5" y1="445.25" x2="6.5" y2="451.75"/><line class="cls-2" x1="6.5" y1="455" x2="6.5" y2="461.5"/><line class="cls-2" x1="6.5" y1="464.75" x2="6.5" y2="471.25"/><line class="cls-2" x1="6.5" y1="474.5" x2="6.5" y2="481"/><line class="cls-2" x1="6.5" y1="484.25" x2="6.5" y2="490.75"/><line class="cls-2" x1="6.5" y1="494" x2="6.5" y2="500.5"/><line class="cls-2" x1="6.5" y1="503.75" x2="6.5" y2="510.25"/></svg>